<svg xmlns="http://www.w3.org/2000/svg" width="64" height="64" enable-background="new 0 0 64 64" viewBox="0 0 64 64" id="flower">
  <path fill="#133851" d="M61.55,27.965c-0.81-0.8-1.63-1.609-1.79-2.3c-0.16-0.74,0.24-1.87,0.62-2.96c0.56-1.57,1.13-3.19,0.46-4.6
		c-0.69-1.421-2.34-1.99-3.93-2.54c-1.07-0.37-2.19-0.75-2.65-1.32c-0.45-0.58-0.59-1.76-0.7-2.89c-0.19-1.671-0.37-3.4-1.6-4.381
		c-1.24-0.979-2.95-0.77-4.61-0.58c-1.14,0.131-2.32,0.261-3-0.06c-0.64-0.31-1.26-1.31-1.86-2.27
		c-0.89-1.431-1.81-2.921-3.37-3.271c-1.51-0.34-2.95,0.58-4.35,1.46c-0.99,0.62-2,1.271-2.77,1.271c-0.78,0-1.79-0.65-2.78-1.271
		c-1.4-0.88-2.84-1.8-4.35-1.46c-1.56,0.35-2.48,1.84-3.37,3.271c-0.6,0.96-1.21,1.96-1.86,2.27c-0.67,0.32-1.86,0.19-3,0.05
		c-1.66-0.18-3.37-0.39-4.61,0.59c-1.23,0.98-1.41,2.71-1.6,4.381c-0.11,1.13-0.24,2.31-0.7,2.89c-0.46,0.57-1.57,0.95-2.65,1.32
		c-1.59,0.55-3.24,1.119-3.93,2.54c-0.67,1.409-0.1,3.029,0.46,4.6c0.39,1.09,0.78,2.22,0.62,2.96c-0.16,0.69-0.98,1.5-1.79,2.29
		c-1.2,1.2-2.44,2.43-2.44,4.05c0,1.61,1.24,2.84,2.44,4.04c0.81,0.79,1.63,1.6,1.79,2.29c0.16,0.74-0.23,1.87-0.62,2.96
		c-0.56,1.57-1.13,3.19-0.46,4.6c0.69,1.421,2.34,1.99,3.93,2.54c1.08,0.36,2.19,0.75,2.65,1.33c0.45,0.57,0.59,1.75,0.7,2.88
		c0.19,1.671,0.37,3.4,1.6,4.381c1.24,0.979,2.95,0.77,4.61,0.59c1.14-0.141,2.32-0.271,3,0.05c0.65,0.31,1.26,1.31,1.86,2.27
		c0.89,1.431,1.81,2.92,3.37,3.271c1.51,0.34,2.95-0.58,4.35-1.46c0.99-0.62,2-1.271,2.78-1.271c0.77,0,1.78,0.65,2.77,1.271
		c1.2,0.76,2.42,1.53,3.69,1.53c0.21,0,0.43-0.021,0.66-0.07c1.56-0.351,2.48-1.84,3.37-3.271c0.6-0.96,1.21-1.96,1.86-2.27
		c0.67-0.32,1.86-0.19,3-0.05c1.66,0.189,3.37,0.39,4.61-0.59c1.23-0.98,1.41-2.71,1.6-4.381c0.11-1.13,0.25-2.31,0.7-2.88
		c0.46-0.58,1.58-0.96,2.65-1.33c1.59-0.55,3.24-1.119,3.93-2.54c0.67-1.409,0.1-3.029-0.46-4.6c-0.38-1.09-0.78-2.21-0.62-2.96
		c0.16-0.68,0.98-1.5,1.79-2.29c1.2-1.2,2.45-2.43,2.45-4.04C64,30.385,62.75,29.155,61.55,27.965z M60.18,34.675
		c-1,0.98-2.03,1.99-2.31,3.24c-0.29,1.28,0.21,2.68,0.68,4.03c0.43,1.189,0.86,2.43,0.53,3.1c-0.33,0.71-1.59,1.14-2.8,1.55
		c-1.34,0.471-2.72,0.94-3.53,1.95c-0.81,1.021-0.97,2.49-1.12,3.9c-0.14,1.27-0.28,2.58-0.89,3.069c-0.59,0.471-1.9,0.32-3.17,0.17
		c-1.41-0.159-2.88-0.33-4.06,0.23c-1.15,0.56-1.92,1.8-2.67,2.99c-0.68,1.1-1.38,2.239-2.15,2.41c-0.72,0.159-1.82-0.53-2.88-1.211
		c-1.22-0.77-2.48-1.569-3.81-1.569c-1.34,0-2.6,0.8-3.82,1.569c-1.06,0.681-2.16,1.37-2.88,1.211c-0.77-0.171-1.47-1.311-2.15-2.41
		c-0.75-1.19-1.52-2.431-2.67-2.99c-0.62-0.3-1.31-0.39-2.04-0.39c-0.66,0-1.34,0.079-2.02,0.159c-1.27,0.15-2.58,0.301-3.17-0.17
		c-0.61-0.489-0.75-1.8-0.89-3.08c-0.15-1.399-0.31-2.869-1.12-3.89c-0.81-1.01-2.19-1.479-3.53-1.95
		c-1.21-0.41-2.47-0.85-2.81-1.55c-0.32-0.68,0.11-1.91,0.54-3.1c0.48-1.351,0.97-2.75,0.68-4.03c-0.28-1.25-1.31-2.26-2.31-3.24
		c-0.92-0.92-1.87-1.87-1.87-2.67c0-0.81,0.95-1.76,1.87-2.67c1-0.99,2.03-2,2.31-3.25c0.29-1.29-0.2-2.68-0.68-4.03
		c-0.43-1.189-0.86-2.42-0.53-3.1c0.33-0.7,1.59-1.14,2.8-1.55c1.34-0.471,2.72-0.94,3.53-1.95c0.81-1.021,0.97-2.49,1.12-3.9
		c0.15-1.27,0.28-2.58,0.89-3.069c0.6-0.471,1.91-0.32,3.17-0.17c1.41,0.159,2.88,0.34,4.06-0.23c1.15-0.56,1.92-1.8,2.67-2.99
		c0.68-1.1,1.38-2.229,2.16-2.41c0.71-0.159,1.81,0.53,2.87,1.21c1.22,0.771,2.48,1.57,3.82,1.57c1.33,0,2.59-0.8,3.81-1.57
		c1.06-0.67,2.15-1.369,2.88-1.21c0.77,0.181,1.47,1.311,2.15,2.41c0.75,1.19,1.52,2.431,2.67,2.99c1.18,0.57,2.65,0.39,4.06,0.23
		c1.27-0.15,2.58-0.301,3.17,0.17c0.61,0.489,0.75,1.8,0.89,3.08c0.15,1.399,0.31,2.869,1.12,3.89c0.81,1.01,2.19,1.479,3.53,1.95
		c1.21,0.41,2.47,0.85,2.81,1.55c0.32,0.68-0.11,1.91-0.54,3.1c-0.47,1.36-0.97,2.74-0.68,4.03c0.28,1.25,1.31,2.26,2.31,3.25
		c0.92,0.91,1.88,1.86,1.88,2.67C62.06,32.805,61.1,33.755,60.18,34.675z"></path>
  <path fill="#FEDC7D" d="M60.18,29.335c-1-0.99-2.03-2-2.31-3.25c-0.29-1.29,0.21-2.67,0.68-4.03c0.43-1.189,0.86-2.42,0.54-3.1
		c-0.34-0.7-1.6-1.14-2.81-1.55c-1.34-0.471-2.72-0.94-3.53-1.95c-0.81-1.021-0.97-2.49-1.12-3.89c-0.14-1.28-0.28-2.591-0.89-3.08
		c-0.59-0.471-1.9-0.32-3.17-0.17c-1.41,0.159-2.88,0.34-4.06-0.23c-1.15-0.56-1.92-1.8-2.67-2.99c-0.68-1.1-1.38-2.229-2.15-2.41
		c-0.73-0.159-1.82,0.54-2.88,1.21c-1.22,0.771-2.48,1.57-3.81,1.57c-1.34,0-2.6-0.8-3.82-1.57c-1.06-0.68-2.16-1.369-2.87-1.21
		c-0.78,0.181-1.48,1.311-2.16,2.41c-0.75,1.19-1.52,2.431-2.67,2.99c-1.18,0.57-2.65,0.39-4.06,0.23
		c-1.26-0.15-2.57-0.301-3.17,0.17c-0.61,0.489-0.74,1.8-0.89,3.069c-0.15,1.41-0.31,2.88-1.12,3.9c-0.81,1.01-2.19,1.479-3.53,1.95
		c-1.21,0.41-2.47,0.85-2.8,1.55c-0.33,0.68,0.1,1.91,0.53,3.1c0.48,1.351,0.97,2.74,0.68,4.03c-0.28,1.25-1.31,2.26-2.31,3.25
		c-0.92,0.91-1.87,1.86-1.87,2.67c0,0.8,0.95,1.75,1.87,2.67c1,0.98,2.03,1.99,2.31,3.24c0.29,1.28-0.2,2.68-0.68,4.03
		c-0.43,1.189-0.86,2.42-0.54,3.1c0.34,0.7,1.6,1.14,2.81,1.55c1.34,0.471,2.72,0.94,3.53,1.95c0.81,1.021,0.97,2.49,1.12,3.89
		c0.14,1.28,0.28,2.591,0.89,3.08c0.59,0.471,1.9,0.32,3.17,0.17c0.68-0.08,1.36-0.159,2.02-0.159c0.73,0,1.42,0.09,2.04,0.39
		c1.15,0.56,1.92,1.8,2.67,2.99c0.68,1.1,1.38,2.239,2.15,2.41c0.72,0.159,1.82-0.53,2.88-1.211c1.22-0.77,2.48-1.569,3.82-1.569
		c1.33,0,2.59,0.8,3.81,1.569c1.06,0.681,2.16,1.37,2.88,1.211c0.77-0.171,1.47-1.311,2.15-2.41c0.75-1.19,1.52-2.431,2.67-2.99
		c1.18-0.561,2.65-0.39,4.06-0.23c1.27,0.15,2.58,0.301,3.17-0.17c0.61-0.489,0.75-1.8,0.89-3.069c0.15-1.41,0.31-2.88,1.12-3.9
		c0.81-1.01,2.19-1.479,3.53-1.95c1.21-0.41,2.47-0.84,2.8-1.55c0.33-0.67-0.1-1.91-0.53-3.1c-0.47-1.351-0.97-2.75-0.68-4.03
		c0.28-1.25,1.31-2.26,2.31-3.24c0.92-0.92,1.88-1.87,1.88-2.67C62.06,31.195,61.1,30.245,60.18,29.335z M46.93,37.345
		c-0.02,0.08-0.05,0.15-0.07,0.221c-1.53,4.039-4.64,7.31-8.59,9.01c-0.04,0.029-0.08,0.05-0.13,0.069
		c-1.89,0.801-3.97,1.23-6.14,1.23c-2.18,0-4.25-0.43-6.14-1.23c-0.06-0.02-0.11-0.05-0.16-0.079c-3.96-1.711-7.07-5-8.58-9.061
		c-0.01-0.02-0.01-0.04-0.02-0.06c-0.62-1.71-0.98-3.53-0.98-5.44c0-1.89,0.35-3.7,0.96-5.38c0.01-0.06,0.03-0.11,0.05-0.17
		c1.53-4.061,4.65-7.36,8.63-9.05c0.01-0.011,0.02-0.021,0.03-0.021c1.91-0.819,4.01-1.26,6.21-1.26c2.19,0,4.29,0.44,6.2,1.26
		c0,0,0.01,0,0.01,0.01c3.97,1.681,7.1,4.961,8.64,9.011c0.04,0.1,0.08,0.2,0.1,0.31c0.59,1.65,0.92,3.43,0.92,5.29
		C47.87,33.875,47.53,35.675,46.93,37.345z"></path>
  <path fill="#133851" d="M46.95,26.715c-0.02-0.109-0.06-0.21-0.1-0.31c-1.54-4.05-4.67-7.33-8.64-9.011c0-0.01-0.01-0.01-0.01-0.01
		c-1.91-0.819-4.01-1.26-6.2-1.26c-2.2,0-4.3,0.44-6.21,1.26c-0.01,0-0.02,0.01-0.03,0.021c-3.98,1.689-7.1,4.989-8.63,9.05
		c-0.02,0.06-0.04,0.11-0.05,0.17c-0.61,1.68-0.96,3.49-0.96,5.38c0,1.91,0.36,3.73,0.98,5.44c0.01,0.02,0.01,0.04,0.02,0.06
		c1.51,4.061,4.62,7.35,8.58,9.061c0.05,0.029,0.1,0.06,0.16,0.079c1.89,0.801,3.96,1.23,6.14,1.23c2.17,0,4.25-0.43,6.14-1.23
		c0.05-0.02,0.09-0.04,0.13-0.069c3.95-1.7,7.06-4.971,8.59-9.01c0.02-0.07,0.05-0.141,0.07-0.221c0.6-1.67,0.94-3.47,0.94-5.34
		C47.87,30.145,47.54,28.365,46.95,26.715z M25.19,44.155c-2.47-1.391-4.48-3.521-5.72-6.08h5.72V44.155z M25.19,36.135h-6.51
		c-0.41-1.31-0.62-2.7-0.62-4.13c0-1.45,0.21-2.83,0.62-4.14h6.51V36.135z M25.19,25.925h-5.73c1.25-2.56,3.25-4.689,5.73-6.08
		V25.925z M36.86,45.045c-1.52,0.57-3.15,0.89-4.86,0.89c-1.72,0-3.36-0.319-4.87-0.89v-6.97h9.73V45.045z M36.86,36.135h-9.73
		v-8.27h9.73V36.135z M36.86,25.925h-9.73v-6.97c1.51-0.57,3.15-0.89,4.87-0.89c1.71,0,3.34,0.319,4.86,0.89V25.925z M38.8,19.845
		c2.47,1.391,4.48,3.521,5.73,6.08H38.8V19.845z M38.8,44.165v-6.09h5.73C43.28,40.645,41.27,42.765,38.8,44.165z M45.31,36.135
		H38.8v-8.27h6.51c0.41,1.31,0.62,2.689,0.62,4.14C45.93,33.435,45.72,34.825,45.31,36.135z"></path>
  <path fill="#4FBEE6" d="M45.93 32.005c0 1.43-.21 2.82-.62 4.13H38.8v-8.27h6.51C45.72 29.175 45.93 30.555 45.93 32.005zM36.86 18.955v6.97h-9.73v-6.97c1.51-.57 3.15-.89 4.87-.89C33.71 18.065 35.34 18.385 36.86 18.955zM25.19 27.865v8.27h-6.51c-.41-1.31-.62-2.7-.62-4.13 0-1.45.21-2.83.62-4.14H25.19zM36.86 38.075v6.97c-1.52.57-3.15.89-4.86.89-1.72 0-3.36-.319-4.87-.89v-6.97H36.86z"></path>
  <path fill="#F26E62" d="M44.529 38.075c-1.251 2.569-3.258 4.693-5.731 6.09v-6.09H44.529zM25.193 38.075v6.08c-2.473-1.387-4.48-3.521-5.721-6.08H25.193zM44.529 25.925h-5.731v-6.08C41.271 21.231 43.278 23.365 44.529 25.925z"></path>
  <rect width="9.726" height="8.271" x="27.132" y="27.864" fill="#F26E62"></rect>
  <path fill="#F26E62" d="M25.193,19.845v6.08h-5.731C20.713,23.365,22.71,21.231,25.193,19.845z"></path>
</svg>
